<svg width="101" height="101" viewBox="0 0 101 101" fill="none" xmlns="http://www.w3.org/2000/svg">
<ellipse cx="49.9925" cy="50.3662" rx="48.2479" ry="48.8399" fill="#4BB9F5"/>
<ellipse cx="50.2145" cy="50.4402" rx="19.758" ry="19.906" fill="#F5C86E"/>
<ellipse cx="50.5105" cy="50.5142" rx="3.32999" ry="3.40399" fill="white"/>
<rect x="56.3565" y="38.4177" width="18.056" height="7.84399" transform="rotate(-45 56.3565 38.4177)" fill="white"/>
<path d="M98.0431 0.312653C97.7668 0.49025 94.5503 3.62785 90.8996 7.25877L84.2692 13.8694L83.1247 12.8433C77.8362 8.00864 70.2586 3.94358 62.8981 1.98998C58.2016 0.746788 56.0901 0.49025 49.9925 0.49025C45.217 0.509987 44.1317 0.569183 42.0005 0.924385C36.6331 1.87158 32.8245 3.09505 28.0885 5.42358C22.6027 8.12704 19.2086 10.5542 14.7488 14.9942C7.96057 21.7825 3.67845 29.2811 1.46832 38.2795C-2.73488 55.487 2.21818 73.3061 14.6304 85.6986C21.912 92.9802 30.8907 97.6965 40.9547 99.5514C53.0512 101.781 65.6213 99.4725 76.1391 93.0592C87.7818 85.9552 96.2671 73.9179 99.01 60.6176C100.352 54.0859 100.332 46.3307 98.9311 39.7003C97.3327 32.103 93.5636 24.4267 88.354 18.191L87.1306 16.7308L93.7412 10.0806C97.3919 6.42998 100.51 3.23318 100.687 2.95692C101.2 2.16758 101.082 1.41772 100.332 0.667854C99.5823 -0.082016 98.8324 -0.200417 98.0431 0.312653ZM57.4912 4.91051C65.7594 6.33131 73.2383 9.7649 79.6517 15.1126L81.4869 16.6518L76.5535 21.5852L71.6005 26.5382L70.5743 25.5121C69.4298 24.407 68.897 24.1702 68.0879 24.3676C67.7722 24.4465 66.1935 25.8475 64.161 27.8801L60.7669 31.2545L59.2277 30.5441C57.4912 29.735 55.6954 29.143 53.9392 28.7878C52.4197 28.4721 47.9994 28.4721 46.3418 28.7878C38.2117 30.3073 31.8773 35.7339 29.2528 43.4497C27.7531 47.8502 27.8517 53.5531 29.4896 57.9339C32.2128 65.2549 38.6656 70.6027 46.3813 71.9445C49.0058 72.3984 52.8736 72.2405 55.5178 71.5499C63.5098 69.4779 69.8245 62.7883 71.4623 54.6582C72.3503 50.2774 71.857 45.5611 70.081 41.575L69.5679 40.4305L73.1002 36.8785C76.6127 33.3462 76.6325 33.3462 76.6325 32.4582C76.6325 31.6689 76.5338 31.4913 75.5471 30.4849L74.4618 29.3995L79.3754 24.4859L84.289 19.5724L85.6506 21.23C90.8799 27.5841 94.2938 35.3195 95.5962 43.8049C96.0895 47.0016 96.0895 53.9083 95.6159 57.0064C94.057 66.9125 89.9327 75.2795 83.0853 82.3243C79.0597 86.4485 75.3498 89.1717 70.3178 91.6581C65.6805 93.9472 60.6485 95.4469 55.3205 96.0981C52.4394 96.473 46.4602 96.3744 43.441 95.9205C33.7717 94.4602 25.2864 90.3557 18.3206 83.7253C5.94778 71.9643 1.11312 54.4608 5.69124 37.8849C8.90777 26.2225 16.959 16.0598 27.6939 10.0806C32.864 7.19958 38.4288 5.40385 44.5658 4.61451C47.6048 4.23958 54.4325 4.37771 57.4912 4.91051ZM70.3178 30.7809L71.8965 32.3595L67.5946 36.6614L63.3125 40.9435L61.6944 39.3057L60.0565 37.6875L64.2991 33.4449C66.6277 31.1163 68.5813 29.2022 68.6405 29.2022C68.6997 29.2022 69.4495 29.9126 70.3178 30.7809ZM53.5445 32.8529C54.3141 33.0107 55.577 33.3659 56.3664 33.6619L57.7872 34.175L56.6229 35.4182C54.8666 37.3126 54.8469 37.9243 56.5637 39.7003L57.4714 40.6278L56.3664 41.7921C55.7744 42.4038 55.2021 43.1339 55.1232 43.3905C54.8074 44.4166 55.5968 45.6795 56.7216 45.8966C57.5306 46.0347 58.024 45.7782 59.3066 44.535L60.3525 43.5286L61.28 44.4363C62.9573 46.0742 63.9242 46.0939 65.4831 44.4955C65.9567 44.0022 66.4106 43.6075 66.4895 43.6075C66.7066 43.6075 67.4367 46.0939 67.6735 47.5936C68.009 49.784 67.7919 53.2176 67.1802 55.3094C65.3055 61.6438 60.4512 66.2021 53.88 67.8203C51.8869 68.3136 48.0981 68.2544 45.888 67.7216C40.5995 66.4192 36.3371 62.9659 33.9888 58.1115C32.6864 55.408 32.2523 53.5136 32.2523 50.3168C32.2523 47.2976 32.6272 45.4822 33.7915 42.9366C36.12 37.8651 40.8363 34.0369 46.2432 32.8923C48.0389 32.4977 51.7882 32.4779 53.5445 32.8529Z" fill="black"/>
<path d="M48.6901 9.84384C47.5061 11.0476 48.1573 12.9222 49.8346 13.159C50.6042 13.2577 50.7424 13.1985 51.3738 12.567C52.1434 11.7974 52.2421 11.1857 51.7685 10.2582C51.1568 9.09397 49.657 8.89664 48.6901 9.84384Z" fill="black"/>
<path d="M38.5472 10.8305C27.2597 14.1852 17.9851 22.118 12.9926 32.6555C10.4667 37.9638 9.0459 43.8049 9.0459 48.8171C9.0459 51.1456 9.1643 51.5403 10.0326 51.9942C10.9403 52.4678 11.5718 52.3691 12.2822 51.639C12.9136 51.0272 12.9334 50.9483 13.0715 48.8368C13.5056 41.8907 15.2027 36.3062 18.5376 30.8401C20.4518 27.7025 23.8853 23.7953 26.7269 21.5062C30.1803 18.7436 34.6005 16.3558 38.6459 15.0732C39.8891 14.6785 41.1717 14.2641 41.4875 14.1457C42.0795 13.9286 42.7898 12.9617 42.7898 12.3697C42.7898 11.4028 41.6058 10.2385 40.6784 10.278C40.4811 10.278 39.5339 10.5345 38.5472 10.8305Z" fill="black"/>
<path d="M46.8154 19.1382C33.4757 20.638 22.8789 29.8929 19.4848 43.0155C19.0704 44.6731 18.7152 47.4555 18.7152 49.2907C18.7152 51.0667 18.735 51.1654 19.2875 51.7179C20.0571 52.4678 21.1819 52.5072 21.9317 51.8166C22.5435 51.2443 22.5632 51.1456 22.8395 47.9686C23.3723 42.0289 25.6613 36.6811 29.5291 32.3003C34.4032 26.775 40.8757 23.6177 48.3349 23.1046C50.9002 22.927 51.512 22.6705 51.8672 21.6049C52.1434 20.7761 51.9658 20.0854 51.3541 19.5132C50.9594 19.1382 50.624 19.0396 49.5386 19.0198C48.8085 19.0001 47.585 19.0396 46.8154 19.1382Z" fill="black"/>
<path d="M78.5071 48.5803C77.777 48.975 77.3231 50.0406 77.3231 51.4022C77.3231 52.7835 76.9087 55.6448 76.4549 57.3419C75.3498 61.6043 72.9818 65.8075 69.8639 69.1029C65.0095 74.1941 59.1882 76.9371 51.9856 77.5685C49.1242 77.8053 48.6309 78.0027 48.1968 79.0485C47.96 79.6208 47.96 79.8181 48.1968 80.3904C48.6309 81.456 49.1637 81.6928 51.0186 81.6928C55.8533 81.6928 61.872 79.8971 66.3317 77.1344C74.0869 72.3195 79.1978 64.8997 80.8751 56C80.9935 55.4278 81.1711 53.9478 81.2698 52.7046C81.4869 50.2971 81.3685 49.4486 80.6975 48.8566C80.2042 48.4027 79.0991 48.2646 78.5071 48.5803Z" fill="black"/>
<path d="M88.0383 48.7382C87.2687 49.192 86.9924 50.0603 86.9924 52.0534C86.9924 53.8294 86.5386 56.9078 85.9071 59.4139C84.3482 65.5509 81.6645 70.504 77.2639 75.4176C72.8437 80.3312 66.4106 84.2581 59.6816 86.1328C57.649 86.705 56.8794 87.968 57.728 89.4085C58.2805 90.336 59.0896 90.4741 60.8853 89.9808C77.5007 85.4618 89.538 70.8987 90.9786 53.5728C91.2351 50.2774 91.1364 49.5275 90.3274 48.8566C89.617 48.2448 88.8868 48.2054 88.0383 48.7382Z" fill="black"/>
<path d="M49.065 87.7312C47.368 88.6389 48.0784 91.3621 49.9925 91.3621C50.92 91.3621 51.3936 91.1056 51.7685 90.3754C52.2421 89.4677 52.1434 88.8362 51.3936 88.0864C50.6437 87.3365 49.953 87.2378 49.065 87.7312Z" fill="black"/>
<path d="M48.1376 44.2193C46.5194 44.6929 45.0197 46.0545 44.2106 47.7515C43.7962 48.6198 43.6976 49.1328 43.6778 50.3168C43.6778 51.6192 43.7765 51.9942 44.329 53.1387C46.3418 57.2038 51.7093 57.9734 54.7285 54.6187C57.0768 51.9942 56.9386 48.2251 54.393 45.7387C52.8341 44.2193 50.3082 43.6075 48.1376 44.2193ZM51.5712 48.5803C52.4592 49.3894 52.6565 50.3563 52.1632 51.3824C51.7093 52.3296 51.1173 52.7046 50.0912 52.7243C49.0848 52.744 48.3546 52.2507 47.8613 51.2443C47.5653 50.672 47.5456 50.3958 47.7034 49.7643C47.9205 49.0342 48.5125 48.304 49.1045 48.087C49.9728 47.7712 50.9002 47.9488 51.5712 48.5803Z" fill="black"/>
</svg>
